PathFileType  4	(X/Y/Z) C:\Users\antoi\Documents\MyRepositories\mobilecap\ResultsAnalysis
DataRate	CameraRate	NumFrames	NumMarkers	Units	OrigDataRate	OrigDataStartFrame	OrigNumFrames
100.0	100.0	6	51	mm	100.0	83	132
Frame#	Time	r_knee			r_shank_antsup			r_ankle			r_calc			r_5meta			r_toe			L_knee			L_shank_antsup			L_ankle			L_calc			L_5meta			L_toe			r_sh2			r_sh3			r_sh4			L_sh2			L_sh3			r_thigh1			r_thigh2			r_thigh3			r_thigh4			r_thigh5			L_thigh1			L_thigh2			L_thigh3			L_thigh4			r.ASIS			r.PSIS			L.ASIS			L.PSIS			C7			R_Shoulder			L_Shoulder			R_Sternum			L_Sternum			R_humerus			R_elbow_med			R_elbow_lat			R_forearm			R_wrist_radius			R_wrist_ulna			L_humerus			L_elbow_med			L_elbow_lat			L_forearm			L_wrist_radius			L_wrist_ulna			R_HJC			L_HJC			R_HJC_reg			L_HJC_reg			
		X1	Y1	Z1	X2	Y2	Z2	X3	Y3	Z3	X4	Y4	Z4	X5	Y5	Z5	X6	Y6	Z6	X7	Y7	Z7	X8	Y8	Z8	X9	Y9	Z9	X10	Y10	Z10	X11	Y11	Z11	X12	Y12	Z12	X13	Y13	Z13	X14	Y14	Z14	X15	Y15	Z15	X16	Y16	Z16	X17	Y17	Z17	X18	Y18	Z18	X19	Y19	Z19	X20	Y20	Z20	X21	Y21	Z21	X22	Y22	Z22	X23	Y23	Z23	X24	Y24	Z24	X25	Y25	Z25	X26	Y26	Z26	X27	Y27	Z27	X28	Y28	Z28	X29	Y29	Z29	X30	Y30	Z30	X31	Y31	Z31	X32	Y32	Z32	X33	Y33	Z33	X34	Y34	Z34	X35	Y35	Z35	X36	Y36	Z36	X37	Y37	Z37	X38	Y38	Z38	X39	Y39	Z39	X40	Y40	Z40	X41	Y41	Z41	X42	Y42	Z42	X43	Y43	Z43	X44	Y44	Z44	X45	Y45	Z45	X46	Y46	Z46	X47	Y47	Z47	X48	Y48	Z48	X49	Y49	Z49	X50	Y50	Z50	X51	Y51	Z51	

83	0.82000000	1010.60654	512.86473	-58.94540	1015.46991	433.37749	-78.02068	750.91084	224.41088	-119.98287	684.42260	248.13806	-165.13864	783.29810	109.87375	-88.63887	843.90152	100.22117	-136.41537	884.00079	496.54755	-356.93399	908.79580	397.67320	-361.06046	827.99643	98.45920	-314.40881	763.83319	64.40302	-260.97830	925.36578	41.88229	-364.27043	975.01098	64.69870	-312.01949	923.04875	361.68396	-68.08802	961.11792	491.23741	-55.49488	875.55039	419.03169	-67.43722	820.92776	415.62870	-357.66067	810.50612	293.86330	-355.42436	957.56518	826.10204	-42.14955	996.78755	719.24065	-40.00224	895.40587	675.71819	-53.89466	849.86372	786.59708	-46.89943	944.59987	678.07914	-25.80757	905.03779	762.86493	-417.00943	920.11370	628.27440	-389.07648	797.95584	755.03693	-376.55561	817.39327	618.55341	-354.96319	948.24195	971.71785	-95.08887	761.66485	1010.27282	-178.93168	959.30291	959.52979	-345.42091	757.38838	1018.56080	-279.46613	750.13453	1413.21403	-251.19955	838.16287	1392.10847	-64.36867	844.40443	1383.98840	-421.98067	888.82549	1396.03457	-218.98566	896.01010	1396.23787	-261.80707	850.61416	1256.20552	-2.18692	810.46982	1042.02754	-51.95863	822.52006	1058.19493	18.67187	910.24852	948.22962	38.16887	965.68478	824.78485	46.11223	937.65174	812.42101	64.03111	874.17619	1267.62811	-477.69599	864.68684	1030.99574	-412.27839	867.79270	1052.94199	-488.81429	942.18191	967.87449	-509.09827	990.11732	818.60429	-537.36177	959.56059	816.82926	-551.63442	870.13761	892.53472	-120.02908	876.27382	889.78753	-326.39855	885.83108	883.19449	-133.68701	878.81903	896.78243	-298.54781	
84	0.83000000	1029.30780	516.74423	-60.57487	1037.27865	437.45796	-79.87529	782.76613	215.88089	-121.13798	714.80061	236.35976	-165.85281	821.39176	103.40828	-89.90077	882.17199	97.04985	-137.92282	887.01504	496.91234	-356.29298	910.91924	397.99636	-360.41470	828.41821	98.84657	-314.09550	763.99540	64.54896	-260.76516	925.44867	41.85689	-364.25890	975.19990	64.60920	-312.01012	948.44439	361.12821	-69.54602	980.13134	492.39014	-56.67234	898.21611	416.13508	-68.06885	823.16435	416.39042	-357.03579	812.01647	294.81412	-354.90344	970.96873	829.50873	-42.18279	1012.04394	723.31360	-40.40147	910.95787	678.16306	-52.76894	864.09889	788.27491	-45.41303	960.59851	681.31095	-25.43220	913.12745	762.70286	-416.40848	925.61168	627.93884	-388.22261	805.93250	757.01572	-375.96154	822.70741	620.28277	-353.88699	959.10937	974.02329	-95.75742	772.47196	1011.58898	-178.95111	970.32450	960.28345	-346.03402	768.17905	1019.25345	-279.41752	761.26449	1414.30066	-252.41719	847.59938	1393.25227	-65.00618	856.38358	1385.86917	-422.35031	899.50475	1397.27771	-219.13793	906.90882	1397.63658	-261.86407	858.55021	1257.27130	-2.46037	816.12255	1043.78562	-52.68429	827.51541	1059.84304	18.10517	912.39371	948.07446	39.28846	964.64788	823.42378	48.58167	935.89707	811.56187	66.28105	888.05387	1270.30402	-478.42823	883.97685	1033.19503	-414.16908	887.73154	1055.56313	-490.72661	965.66006	973.13404	-509.63381	1019.85959	825.96882	-537.51450	989.52965	822.84691	-552.35853	881.49029	894.42434	-119.82752	887.16893	890.53432	-326.19260	896.96532	885.08485	-133.82284	889.91695	897.66537	-298.78112	
85	0.84000000	1047.48094	520.20065	-62.16991	1058.64149	441.28513	-81.65164	815.27612	206.89221	-122.30120	746.11055	223.91149	-166.75333	860.01496	96.92479	-90.87330	921.10102	94.01167	-138.97658	890.09007	497.20943	-355.68474	913.10420	398.30424	-359.77345	828.82208	99.28088	-313.76221	764.14073	64.75771	-260.53221	925.53071	41.84965	-364.23390	975.37608	64.51806	-311.97897	973.84677	360.27071	-70.96103	998.68189	493.02021	-57.76594	920.82748	412.68938	-68.69526	825.48002	417.16509	-356.38734	813.59646	295.75902	-354.35664	984.41775	832.49692	-42.21111	1027.05697	726.88848	-40.81409	925.92496	680.53694	-51.36308	878.33711	789.80224	-43.75717	976.33378	684.20121	-24.96558	921.15013	762.43451	-415.78793	931.13439	627.57317	-387.35504	813.92257	758.78896	-375.33283	828.11612	621.91766	-352.76585	969.99596	975.89245	-96.36016	783.28847	1012.65069	-178.85674	981.34735	960.80249	-346.62444	778.93274	1019.72599	-279.24153	772.42431	1415.13981	-253.57299	857.03499	1394.08136	-65.61302	868.36007	1387.48364	-422.69509	910.19612	1398.26341	-219.27892	917.83980	1398.79353	-261.91797	866.41642	1258.04184	-2.68087	821.76767	1045.21918	-53.33932	832.47292	1061.22669	17.57170	914.51659	947.78620	40.43995	963.72618	822.07603	51.04190	934.25444	810.74496	68.49583	901.95230	1272.74760	-479.17314	903.13302	1035.31138	-415.98882	907.51079	1058.05863	-492.50726	988.79201	978.43193	-510.09901	1049.25816	833.63011	-537.36318	1019.21044	829.06497	-552.79798	892.82246	895.94630	-119.62523	898.01033	891.06795	-325.98024	908.08042	886.65704	-133.89093	900.91750	898.28764	-298.96194	
86	0.85000000	1065.09912	523.21144	-63.67867	1079.47540	444.82695	-83.28004	848.41814	197.56752	-123.44856	778.35675	210.86184	-167.82929	899.11912	90.51925	-91.57171	960.62130	91.21402	-139.60157	893.24495	497.40708	-355.12243	915.37032	398.57616	-359.14996	829.21008	99.75937	-313.41646	764.27603	65.03763	-260.28987	925.60350	41.85838	-364.19680	975.49776	64.39696	-311.93142	999.17373	359.18353	-72.31419	1016.73877	493.11334	-58.76483	943.33659	408.74412	-69.34653	827.92141	417.97627	-355.68302	815.24944	296.68778	-353.78736	997.81987	835.04979	-42.25223	1041.76586	729.96692	-41.26961	940.45600	682.74169	-49.73197	892.45720	791.11467	-42.02442	991.77760	686.74365	-24.43942	929.12226	762.06668	-415.13905	936.71437	627.17711	-386.48032	821.89200	760.34082	-374.65307	833.66704	623.41803	-351.61165	980.89878	977.32467	-96.89929	794.13366	1013.46269	-178.67218	992.28093	961.01671	-347.16830	789.66273	1020.00078	-278.96465	783.61009	1415.70860	-254.66589	866.49627	1394.58507	-66.18376	880.37072	1388.79300	-423.01501	920.92154	1398.96073	-219.39690	928.82359	1399.66857	-261.96441	874.23986	1258.50478	-2.85779	827.40695	1046.31833	-53.91710	837.43336	1062.32857	17.08516	916.64568	947.33697	41.60651	962.89588	820.68543	53.47198	932.75905	809.95896	70.65198	915.91885	1274.91880	-479.90198	922.11956	1037.28120	-417.74582	927.13336	1060.36793	-494.16290	1011.56710	983.70880	-510.48972	1078.27141	841.53485	-536.91760	1048.55558	835.44109	-552.95788	904.09482	897.11040	-119.40363	908.74046	891.34345	-325.74510	919.14931	887.86542	-133.90104	911.78479	898.63042	-299.07895	
87	0.86000000	1082.09787	525.75687	-65.05953	1099.67038	448.04613	-84.71011	882.16944	188.03437	-124.54750	811.53875	197.29501	-169.03415	938.69486	84.29321	-92.01492	1000.64214	88.73934	-139.84860	896.52059	497.49161	-354.61138	917.74894	398.79241	-358.55563	829.60192	100.27241	-313.06720	764.42180	65.37928	-260.05343	925.66192	41.87584	-364.15018	975.52814	64.21890	-311.87646	1024.31577	357.93065	-73.58283	1034.23623	492.65721	-59.70138	965.67455	404.33494	-70.06409	830.52934	418.82016	-354.93315	816.98878	297.59846	-353.21417	1011.09515	837.16916	-42.33335	1056.13295	732.55946	-41.80466	954.75244	684.65883	-47.94449	906.35280	792.15852	-40.28826	1006.91145	688.95294	-23.87614	937.07881	761.60489	-414.45156	942.38887	626.74121	-385.59683	829.82044	761.68921	-373.91490	839.39446	624.74911	-350.44579	991.81082	978.31887	-97.37408	805.02795	1014.02243	-178.41670	1003.06639	960.87153	-347.64282	800.39888	1020.09430	-278.61116	794.81973	1415.98989	-255.69292	876.01341	1394.76221	-66.70984	892.43975	1389.76732	-423.30609	931.70268	1399.34900	-219.48084	939.87309	1400.22772	-261.99974	882.05095	1258.65914	-3.00159	833.05298	1047.09097	-54.41543	842.44040	1063.14481	16.65274	918.80962	946.71215	42.77179	962.11227	819.20433	55.85119	931.40947	809.16400	72.72726	929.96461	1276.78864	-480.58195	940.91903	1039.04699	-419.44287	946.58646	1062.45643	-495.70454	1033.98837	988.91692	-510.79378	1106.85820	849.63500	-536.18788	1077.53504	841.96567	-552.83023	915.27950	897.92081	-119.14834	919.32792	891.32572	-325.47401	930.14734	888.66605	-133.87189	922.51070	898.67956	-299.13498	
88	0.87000000	1098.39265	527.81009	-66.29097	1119.10707	450.90411	-85.91443	916.50736	178.42556	-125.55625	845.66476	183.34281	-170.29423	978.75654	78.36318	-92.22409	1041.05322	86.65641	-139.77628	899.97797	497.47256	-354.14492	920.27593	398.93742	-357.99804	830.02587	100.80428	-312.72588	764.60302	65.75910	-259.83774	925.70450	41.89261	-364.09810	975.45830	63.97333	-311.82463	1049.15178	356.55764	-74.72694	1051.08676	491.63955	-60.64029	987.76690	399.48619	-70.88878	833.32990	419.66778	-354.18668	818.83305	298.49122	-352.66557	1024.18324	838.86258	-42.48626	1070.13895	734.67547	-42.45545	968.95426	686.18432	-46.08623	919.95665	792.90138	-38.60086	1021.72754	690.84655	-23.29578	945.06988	761.04947	-413.71898	948.19824	626.24854	-384.69631	837.71985	762.86972	-373.12796	845.31353	625.89155	-349.29714	1002.72890	978.87415	-97.77805	815.98993	1014.32197	-178.10218	1013.70441	960.34159	-348.02836	811.18093	1020.01509	-278.20046	806.05679	1415.97632	-256.64799	885.61653	1394.61800	-67.17917	904.57856	1390.38627	-423.56106	942.55626	1399.41928	-219.52218	950.99451	1400.44797	-262.01896	889.87833	1258.51254	-3.11953	838.73065	1047.55646	-54.83984	847.53757	1063.68241	16.27188	921.03725	945.90874	43.92274	961.34055	817.60419	58.16513	930.18594	808.30501	74.70772	944.07599	1278.33547	-481.18149	959.53532	1040.56207	-421.08094	965.85427	1064.31252	-497.14571	1056.06811	994.01780	-510.99483	1134.97624	857.88495	-535.18249	1106.13213	848.64904	-552.40036	926.37000	898.37575	-118.85151	929.78363	890.99894	-325.15982	941.06731	889.02775	-133.82311	933.12381	898.43018	-299.14208	
